/* XPM */
static char *result[] = {
/* columns rows colors chars-per-pixel */
"32 32 7 1 ",
"  c #906590",
". c #9D6F9C",
"X c #A472A3",
"o c #AC7BAC",
"O c #B286B2",
"+ c #BA95BA",
"@ c #C7A8C7",
/* pixels */
"@@@+@@@@+@@@+++.@@@@+++@@@@+@@+ ",
"@OOOOOOOOOOOOOO @OOOOOOOOOOOOOO.",
"+OOOOOOOOoOOOOo.+OOOOOoOOOOOOoO ",
"+oOOOOoOOoOOoOo.+OoOOOoOOOOOOOo.",
"@OoOOOOOOOoOOoo.+OOOoOOOoOOOoOo.",
"@OoOOOoOOOXoOoo.@OoOoOOOOoOOooo.",
"+ooOoOooOOooooo @OoooOOOooOOoXo ",
"@oXOOoXoOoooXoX @oOoXoOOOooOoXo ",
"@oXoOoXooOoXooX.@XooooOoOoooooX ",
"@oooOooXooXXoXX @oooXoOooXooXoX ",
"@ooOoooXXoXXXXX +ooXXoooooXXXoX.",
"+oXoooXXXoXXoXX @XoXoXoXoXXXoXX.",
"+oXXXoXoXXoXXXX +oXXXXoXXXoXXXX ",
"+XXXXXXoXXXXXXX +XXXXXXXXXoXXXX.",
"+XXXXXXXXXXXXXX.+XXXXXXXXXXXXXX ",
".  ....   .       ..  .... .    ",
"@@@@+@@@++@+@@+ @@@++@@@+@@++++ ",
"@OOOOOOOOOOOooo @OOOOoOOOOOOOOO ",
"@OOOoOOOOOoOOoo.+OOOOoOOOOOOOoO ",
"+OoOoOOoOOoOOoO +OoOOOOoOOOoOoO ",
"@OoOooOOOOOoOOO @OOOOoOoOOooOOo.",
"@OOoooOoOOooOOo @OoOOOoOOOooOoo ",
"@oOoXoooOOoXoOo.+OooOOooOOoXooo.",
"@oooXoXoOOooXoo.+oooOooXoOoooXo.",
"+XooXXoooOoXXoX.+oooOoXoOooXooX.",
"+XoXXXoooooXooX.@XoooOXooooXXoX ",
"+XXoXXXoXooXoXX.@ooooooXooXXXXX ",
"+XXXXXXXXoXXXXX @oooXooXXoXXoXX ",
"@XoXXXXXXXXXXoX.+oXoXoXoXXXXoXX ",
"@XXXXXXXXXXXXoX @oXXooXXXoXXXXX ",
"+XXXXXXXXXXXXXX +XXXoXXXXXXXXXX ",
" ....   .   ..   . ..     .     "
};
