/* XPM */
static char *result[] = {
/* columns rows colors chars-per-pixel */
"32 32 7 1 ",
"  c #5A595A",
". c gray39",
"X c #6A6D6A",
"o c #787678",
"O c gray50",
"+ c #8B898B",
"@ c #9C999C",
/* pixels */
"+@@@@@@@@@@@@@@@@@@@@@@@@@+++++ ",
"@O++OOOO+++OOO++++OOOOOOO++O+++ ",
"@++++++++++++O++OoooO+OOOOOOOO+ ",
"@+OO+++O+++OOOOOOOO+++O+++O++OO ",
"@+++OO++OOO++O+OO+++++++OOOOOOo ",
"@O+++OOO++++OOOOOOO+oO+++OOoOOO ",
"@OOOOO+OO+O++OoooOOOOOO+OOoOooO ",
"@oOOOOOOOOOOOOOOOOO+++oOOOOOooo ",
"@ooooOOOoOOOOoOOO+OOOooooooOOOo ",
"@ooOOooooooOoooOOoooOOooooooooo ",
"@oooooOooOoOOooooooooooOOOoOooo ",
"@OOoooooOOOooooOOoOooOOoOoooOOo ",
"+ooOOXOOoooooooooOoOOoooooXoooo ",
"+OOOXXXooooOoOOooooOOOooOXXoooO ",
"XXXXXXXXXXXXXXXXXXXXXXXXXXXXXXX ",
".....   .....     ..............",
"@@@@@@@@@@@@+++ +@@@@@@@@@@@@@@@",
"+O++++O++++OOO+ @+++++++O+++++++",
"OOOO+++OOOO++OO @++O+++++O+O++OO",
"++OOOOO+OOOOOOO @+O+OO++O+++OOOO",
"OOO+OOOOOOoO++O @OOOOOOOOO+O++Oo",
"O+OOOO++++OOOOO @OOO+OooOOOOOOOO",
"OOO++++OOOOOO+o @oOOooOOOOOOOO+O",
"OOOO++O++OOoOOo @OoooooOooOOoOOO",
"OO++OOOOoOOOOoo @ooOoOoooOOOOOOO",
"OOOOOooOOoOoooX @OooooooOOoO+Ooo",
"O+OoOOOoOoooOoo @ooooOoooOOoooOO",
"OOOooooooOOoooo +oOOooOoooOOoooo",
"OooOOoOooooooOo +oooOoooooooOooO",
"oooooXoooXXXooo +ooooooooOoooooo",
"XXXXXXXXXXXXXXX XXXXXXXXXXXXXXXX",
".............       ............"
};
