/* XPM */
static char *result[] = {
/* columns rows colors chars-per-pixel */
"32 32 19 1 ",
"  c #392E1D",
". c #3D3120",
"X c #3E3221",
"o c #3F3322",
"O c #423625",
"+ c #433726",
"@ c #4D3F2A",
"# c #665234",
"$ c #7B6240",
"% c #917245",
"& c #937447",
"* c #957649",
"= c #96774A",
"- c #9D7E50",
"; c #FF8D00",
": c #FFD600",
"> c #FFFE95",
", c #FFFEFF",
"< c None",
/* pixels */
"<<<<<<<<<<<<<<<<<<<<<<<<<<<<<<<<",
"<<<<<<<<<<<<<<<<<<<<<<<<<<<<<<<<",
"<<<<<<<<<<<<<<<<<<<<<<<<<<<<<<<<",
"<<<<<<<<<<<<<<<<<<<<<<<<<<<<<<<<",
"<<<<<<<<<<<<<<<<<<<<<<<<<<<<<<<<",
"<<<<<<<<<<<<<<<<<<<<<<<<<<<<<<<<",
"<<<<<<<<<<<<<<<<<<<<<<<<<<<<<<<<",
"<<<<<<<<<<<<<<<<<<<<<<<<<<<<<<<<",
"<<<<<<<<<<<<<<<<<<<<<<<<<<<<<<<<",
"<<<<<<<<<<<<<<<<<<<<<<<<<<<<<<<<",
"<<<<<<<<<<<<<<<<<<<<<<<<<<<<<<<<",
"<<<<<<<<<<<<<<<<<<<<<<<<<<<<<<<<",
"<<<<<<<<<<<<<<>>;;<<<<<<<<<<<<<<",
"<<<<<<<<<<<<<<>:;;<<<<<<<<<<<<<<",
"<<<<<<<<<<<<<<>>,;<<<<<<<<<<<<<<",
"<<<<<<<<<<<<<<>:,,<<<<<<<<<<<<<<",
"<<<<<<<<<<<<<<$$@X<<<<<<<<<<<<<<",
"<<<<<<<<<<<<<<$$#X<<<<<<<<<<<<<<",
"<<<<<<<<<<<<<<%#XX<<<<<<<<<<<<<<",
"<<<<<<<<<<<<<<&$#X<<<<<<<<<<<<<<",
"<<<<<<<<<<<<<<&$X+<<<<<<<<<<<<<<",
"<<<<<<<<<<<<<<&+#+<<<<<<<<<<<<<<",
"<<<<<<<<<<<<<<-$OX<<<<<<<<<<<<<<",
"<<<<<<<<<<<<<<-$OX<<<<<<<<<<<<<<",
"<<<<<<<<<<<<<<*#XX<<<<<<<<<<<<<<",
"<<<<<<<<<<<<<<*##X<<<<<<<<<<<<<<",
"<<<<<<<<<<<<<<#$#o<<<<<<<<<<<<<<",
"<<<<<<<<<<<<<<#$#o<<<<<<<<<<<<<<",
"<<<<<<<<<<<<<<=#X.<<<<<<<<<<<<<<",
"<<<<<<<<<<<<<<=#..<<<<<<<<<<<<<<",
"<<<<<<<<<<<<<<#$##<<<<<<<<<<<<<<",
"<<<<<<<<<<<<<<#$ #<<<<<<<<<<<<<<"
};
