/* XPM */
static char *_129_063e1f62e19318b13dd04db36e24e79415819b1d9b7270d9192604565a30a7c4[] = {
/* columns rows colors chars-per-pixel */
"32 32 222 2 ",
"   c #001800",
".  c #022B1D",
"X  c #003316",
"o  c #001D39",
"O  c #012D24",
"+  c #002224",
"@  c #003324",
"#  c #043A2C",
"$  c #063926",
"%  c #133928",
"&  c #00273A",
"*  c #0B3E33",
"=  c #033A33",
"-  c #153A39",
";  c #3C3A36",
":  c #33382C",
">  c #4B3B35",
",  c #4D3C3E",
"<  c #443D3D",
"1  c #523D3A",
"2  c #443424",
"3  c #0B411F",
"4  c #1A402B",
"5  c #0C4232",
"6  c #07443C",
"7  c #3B4A2B",
"8  c #374A2D",
"9  c #294B39",
"0  c #3D4533",
"q  c #3E4C36",
"w  c #3C453E",
"e  c #334A3C",
"r  c #3E493C",
"t  c #255E38",
"y  c #3F523F",
"u  c #47462D",
"i  c #504B2E",
"p  c #454534",
"a  c #4A4234",
"s  c #444A36",
"d  c #4B4B34",
"f  c #44453A",
"g  c #4B453B",
"h  c #444D3C",
"j  c #4C4C3C",
"k  c #52443A",
"l  c #534A3D",
"z  c #5A4A3D",
"x  c #554836",
"c  c #465138",
"v  c #46512F",
"b  c #003F66",
"n  c #583F45",
"m  c #1C5542",
"M  c #2C4D44",
"N  c #3B4D46",
"B  c #3B4D49",
"V  c #384844",
"C  c #235242",
"Z  c #25554A",
"A  c #2A534A",
"S  c #2B5A4B",
"D  c #295344",
"F  c #355445",
"G  c #3B5346",
"H  c #325A42",
"J  c #32554B",
"K  c #3B544C",
"L  c #34594B",
"P  c #395846",
"I  c #2B5B53",
"U  c #395852",
"Y  c #304857",
"T  c #2D6051",
"R  c #396449",
"E  c #004463",
"W  c #1C5E78",
"Q  c #395664",
"!  c #3A646C",
"~  c #27627E",
"^  c #4C4342",
"/  c #434B44",
"(  c #4A4C44",
")  c #4D4B4C",
"_  c #514443",
"`  c #544D42",
"'  c #5C4D44",
"]  c #544A4A",
"[  c #5D4948",
"{  c #465145",
"}  c #4C5343",
"|  c #4D5946",
" . c #445C4C",
".. c #4C5A4C",
"X. c #46544D",
"o. c #545244",
"O. c #5A5346",
"+. c #545949",
"@. c #585449",
"#. c #495754",
"$. c #555756",
"%. c #545A56",
"&. c #635145",
"*. c #6C997D",
"=. c #67A37D",
"-. c #5D978A",
";. c #5F9889",
":. c #689889",
">. c #708E90",
",. c #6A9992",
"<. c #789A8A",
"1. c #5FA291",
"2. c #75B18B",
"3. c #66A799",
"4. c #72A695",
"5. c #7CA299",
"6. c #74A99E",
"7. c #73A49A",
"8. c #609ABF",
"9. c #57A1BC",
"0. c #7AB3A9",
"q. c #74AFB1",
"w. c #57ADC9",
"e. c #62B0D4",
"r. c #AC9C8C",
"t. c #9EAC9B",
"y. c #8CBD9F",
"u. c #9FB197",
"i. c #ADA69B",
"p. c #A4AB9C",
"a. c #AAAB9C",
"s. c #A9AB95",
"d. c #B3A59A",
"f. c #B2AB9C",
"g. c #BAAC9C",
"h. c #ADB29D",
"j. c #AAB99C",
"k. c #B4B39E",
"l. c #B7B699",
"z. c #A6A08A",
"x. c #86ADAD",
"c. c #9EAEA6",
"v. c #9EAFA9",
"b. c #88B1AD",
"n. c #95B4A3",
"m. c #9DB2A6",
"M. c #9BB2AC",
"N. c #9BBDAC",
"B. c #91ADB1",
"V. c #8DBEB2",
"C. c #81B0BA",
"Z. c #95BCB4",
"A. c #9DBEB4",
"S. c #9CBEBA",
"D. c #86A5B7",
"F. c #ABACA2",
"G. c #AAA6A7",
"H. c #B6AEA4",
"J. c #BBAEA6",
"K. c #B4ACAC",
"L. c #BDAFAF",
"P. c #B6A6A1",
"I. c #ABB4A4",
"U. c #ACBAA3",
"Y. c #ACB4AB",
"T. c #A4BCAF",
"R. c #AAB9AC",
"E. c #A3B6A8",
"W. c #B3B4A5",
"Q. c #BBB4A5",
"!. c #B4BBA5",
"~. c #B3B3AD",
"^. c #BCB4AB",
"/. c #B5BCAB",
"(. c #BBBCAB",
"). c #B8B9A7",
"_. c #A6BCB5",
"`. c #ABBBB2",
"'. c #A8B6B8",
"]. c #BBB3B2",
"[. c #B2BBB3",
"{. c #BABDB4",
"}. c #B9BABA",
"|. c #C6ADAB",
" X c #C3B4AC",
".X c #C3B8AD",
"XX c #C6B2A8",
"oX c #C5ADB4",
"OX c #C2B5B3",
"+X c #C9B3B4",
"@X c #C3BAB3",
"#X c #C8BDB6",
"$X c #D0BFB8",
"%X c #9BC4AA",
"&X c #8CC4B3",
"*X c #93C3B6",
"=X c #9DC4B4",
"-X c #9AC4BB",
";X c #95CBBB",
":X c #96C7BB",
">X c #B5C0AE",
",X c #BBC4A9",
"<X c #BFC6A7",
"1X c #A3C3B4",
"2X c #AAC5BC",
"3X c #A5C9B9",
"4X c #B2C2BA",
"5X c #BAC2B6",
"6X c #A9C0A6",
"7X c #C7C7AA",
"8X c #C7C0B0",
"9X c #C2C1BD",
"0X c #C7CBBC",
"qX c #D5C5AE",
"wX c #86BBCD",
"eX c #A5BAC2",
"rX c #B0B9C2",
"tX c #9CC3DA",
"yX c #96C4DC",
"uX c #A1C9C0",
"iX c #A9FFFF",
"pX c #B2FFFF",
/* pixels */
"  2.X *.4 <.. 4.@ 6.# :.5 ,.. 4.@ 6.= -.m -.O 7.+ 0.+ q.& w.E iX",
"=.t y.R n.y 1XL Z.Z *XI &XS =XS Z.Z uXT V.I uXI uXA C.! yXW e.b ",
"3 %X9 1Xe `.N M.U _.J =X9 1XF n. ._.M _.V _.G m./ v.#.eXQ yX~ 8.",
"*.t %XX.E.V ~.#.v.B 2XN 1Xe R.| G.( }./ Y.f ~.o.0Xg }.: eXY tXo ",
"% 1X9 4X/ }.) K.$.[.r `.{ 5X( F.@.^.g ^.` @Xl g.2 r.O.9XV B.Q D.",
"*.F c./ K.^ K.] G.^ ~.f ^.p Q.` f.a Q.a ^.a g.l qXx g.d [.#.B.& ",
"% 2XV '.) ]._ ].] OX` H.o.^.x Q.l (.j W.o.).d l.i l.v s.y _.J x.",
"x.M M.%.G.) ].n ].> H.O.i.l XXa ).7 I.| t.h ).u l.i 7Xq N.H Z.O ",
". uXK c.$.K.n L.g OXj i.O.Q.> (.s /.h c...R.0 /.u <Xv u. .%XZ 3.",
":.A A.K Y.^ {.g J.g W.l k.j Q.d W.f I.( Y.( /.j s.d k.} m.H -X= ",
"* *XJ _./ ~.` i.O.W.p ).f /.j a.@.Q.g ].^ ]._ P.z XXa {.V _.U >.",
"-.S 3XB [.0 ^.O.f.j (.s !.0 I.o.f.k @X^ K.n oX[ d.' .Xl ~.V '.- ",
"5 *X9 _./ {.` i.o.W.0 W.h /.h a.' Q.> J._ @X_ P.' XX> ^.( 4XU >.",
":.S _.e [.f ^.l f.d /.s /.r Y.| s.x Q.f ^.g ^.' d.l Q.f `.B S.- ",
"# *XJ E.o.W.l g.x Q.j I.{ I.r U.c l.c h.{ I.f W.j (.s U.G A.A ,.",
"4.t N...a.j 8Xa Q.p !.+.p.h [.q ,X7 j.| t.h /.p ).d h.+.n.L ;XO ",
"$ ;XL u.+.h.s U.q /.s p.+.!.8 6Xq /.q t.| W.p ).a .Xj F. .A.9 4.",
"1.Z T.{ k.d ,Xc U.r ~.( l.d 6Xq U.r I.{ I.j ^.x g.l J.| m.F =X# ",
"5 *X/ ^.k J.l s.o.~.n |.k XXd p.| Y.q /.s !.d f.` (.g (.N =XS :.",
":.J }.k |.>  X` F.^ +Xn |.1 ).o.F.h >Xh W.p W.o.d.l {./ T.9 &X5 ",
"* S.V L.z |.z i.] ^.n oXn +X_ a.| W.0 !.s (.g f.' ^.; [.F 3XS -.",
",.A `.f  Xx (.o.F.( L.n oX_ ~.o.a.h ).f /.s W.O.F.` ~.V _.J *X5 ",
"# ;XG F.o.k.s j.h `.^ K.) K.r U.j Q.j k.j W.a J._ @X/ Y.X.A.Z ,.",
"3.m N.| s.d ,X8 6X0 ~.$.i.h 4Xs ^.u Q.O.i.g @Xk oXg K.$.c.K uX@ ",
"X &XG U.d 7Xu j.8 >Xj F.O.H.0 R.a  Xl f.O.H.> OX, OX] G.%.M.M 5.",
"0.S T.h s.i j.u j.s ).' H.` /.} W.k Q.O.H.` ].] L._ ].) '.V 2X% ",
"O B.#.@Xx g.i 7Xj l.k |.1 J.g i.l W.f ~.f ~.^ G.] K.^ ~./ m.F :.",
"q.Q '.< $X&.z.7 h.l +X[ oX1 (.+.I.( 5X( [.V [.$.K.) rX( 4X8 1X% ",
"o yXY rX2 #Xf 0X .Y.< L.) }./ m...R.e T.G 2XB E.#.Y.w E.G %Xt *.",
"9.~ eX#.rX#.m.F n.A '.B }.B _.T n.F N.M 1XA A.U M.N T.e 3X9 %X% ",
"E e.W wX! b.Z ;XT uXY S.U eXZ &XS =XS V.I *XA S.L _.H n.R y.t =.",
"iXE 9.& C.+ 0.. 3.O 3.- -.= 6.@ 6.X ,.5 ;.# 6.O 5.. <.4 *.X 2.  "
};
